<svg id="Layer_1" height="512" viewBox="0 0 512 512" width="512" xmlns="http://www.w3.org/2000/svg" data-name="Layer 1"><path d="m420.63 336.18c-10.6-41.06 17.61-46.79-7.03-91.01-15.13-27.17-7.81-48.02-7.81-48.02 22.87-63.57-10.18-90.47-26.09-99.31a20.468 20.468 0 0 1 -9.64-11.96c-9.82-32.4-42.32-37.41-59.8-37.67a20.534 20.534 0 0 1 -16.16-8.04c-7.3-9.7-24.77-24.17-63.93-24.17-74.16 0-94.85 45.66-100.49 67.22-1.76 6.72-6.8 11.48-12.32 15.7-39.39 30.14-21.37 72.75-17.81 95.09 2.75 17.34-21.58 26.98-5.96 80.14 4.93 16.77 10.62 33.62 1.1 48.28-2.67 4.11-41.11 66.57 22.78 91.57h278.44l5.09-2.31c52.6-20.02 20.75-71.2 19.63-75.51zm-71.81-211.87a9.509 9.509 0 0 1 -.47 1.23 7.269 7.269 0 0 1 .47-1.23zm19.63-10.66a5.714 5.714 0 0 1 .58-.05c-.19.02-.39.04-.58.05z" fill="#bc5e51"/><path d="m124.69 322.43c9.52-14.66 3.83-31.51-1.1-48.28-15.62-53.16 8.71-62.8 5.96-80.14-3.56-22.34-21.58-64.95 17.81-95.09 5.52-4.22 10.56-8.98 12.32-15.7 5.224-19.969 23.365-60.6 84.934-66.5a139.559 139.559 0 0 0 -14.444-.72c-74.16 0-94.85 45.66-100.49 67.22-1.76 6.72-6.8 11.48-12.32 15.7-39.39 30.14-21.37 72.75-17.81 95.09 2.75 17.34-21.58 26.98-5.96 80.14 4.93 16.77 10.62 33.62 1.1 48.28-2.67 4.11-41.11 66.57 22.78 91.57h30c-63.89-25-25.45-87.46-22.78-91.57z" fill="#89443d"/><path d="m166.7 440.74a8.383 8.383 0 0 0 .62-1.61c9.9-40.16-19.36-68.43-19.36-68.43a61.3 61.3 0 0 0 -31.41 53.53l.03 61.66a10.106 10.106 0 0 0 10.1 10.11h42.69l-1.68-2.44a60.054 60.054 0 0 1 -.99-52.82z" fill="#4a6491"/><path d="m395.91 413.58a61.276 61.276 0 0 0 -30.49-42.88s-29.25 28.27-19.36 68.43a9.11 9.11 0 0 0 .62 1.61 60.054 60.054 0 0 1 -.99 52.82l-1.67 2.44h42.68a10.115 10.115 0 0 0 10.11-10.11l.03-61.66a60.686 60.686 0 0 0 -.93-10.65z" fill="#4a6491"/><path d="m216.89 433.87 38.94 30.64-38.94 31.49z" fill="#5fa8ed"/><path d="m147.96 370.7s29.26 28.27 19.36 68.43a8.383 8.383 0 0 1 -.62 1.61 60.054 60.054 0 0 0 .99 52.82l1.68 2.44h47.52v-106.32l-36.73-36.94z" fill="#3d5277"/><path d="m365.42 370.7-32.2-17.96-37.36 37.57v105.69h48.16l1.67-2.44a60.054 60.054 0 0 0 .99-52.82 9.11 9.11 0 0 1 -.62-1.61c-9.89-40.16 19.36-68.43 19.36-68.43z" fill="#3d5277"/><path d="m295.86 390.31v41.82l-40.03 32.38-38.94-30.64v-44.19l38.03 38.25a2.26 2.26 0 0 0 3.54 0z" fill="#4689d3"/><path d="m295.86 432.13v63.87l-40.03-31.49z" fill="#5fa8ed"/><path d="m295.86 496h-78.97l38.94-31.49z" fill="#4689d3"/><path d="m316.48 343.41c-3.56 1.81-24.84 12.26-59.32 12.35-35.02.1-56.75-10.56-60.26-12.35l-16.74 9.33 74.76 75.19a2.26 2.26 0 0 0 3.54 0l74.76-75.19z" fill="#e87187"/><path d="m293.32 330.49a13.23 13.23 0 0 1 -6.79-11.56l.11-27.35-59.79 1.48v25.87a13.221 13.221 0 0 1 -6.78 11.56l-23.17 12.92c3.51 1.79 25.24 12.45 60.26 12.35 34.48-.09 55.76-10.54 59.32-12.35z" fill="#efc597"/><path d="m349.23 148.96v53.45a94.633 94.633 0 0 1 -94.71 94.76h-.01a94.637 94.637 0 0 1 -94.71-94.76v-29.77c33.18-54.06 87.99-50.39 117.02-76.42 34.91 6.04 58.14 30.55 72.41 52.74z" fill="#ffd8b7"/><path d="m359.97 108.08c.69 3.24 4.2 5.81 8.43 5.57a8.388 8.388 0 0 0 -6.07 3.75 8.018 8.018 0 0 0 -.86 6.49 7.033 7.033 0 0 0 -12.65.41 8.3 8.3 0 0 0 -.54-6.37 8.74 8.74 0 0 0 -6.83-4.33 8.173 8.173 0 0 0 6.96-4.34 8.568 8.568 0 0 0 .08-7.34 8.176 8.176 0 0 0 5.57 3.93 7.855 7.855 0 0 0 6.8-2.46 6.711 6.711 0 0 0 -.89 4.69z" fill="#f9d438"/><path d="m160 172.64v29.77a94.193 94.193 0 0 0 94.51 94.59h.01a95.925 95.925 0 0 0 15.024-1.114 93.219 93.219 0 0 1 -12.594-2.826 94.711 94.711 0 0 1 -66.95-90.65v-62.236a109.046 109.046 0 0 0 -30 32.466z" fill="#e2bb9f"/><g fill="#284268"><path d="m426.392 334.483c-4.144-16.189-1.8-25.966.679-36.316 3.39-14.145 6.895-28.772-8.225-55.92-13.5-24.229-7.64-42.385-7.413-43.064 24.509-68.11-11.987-97.228-28.816-106.586a14.407 14.407 0 0 1 -6.814-8.456c-4.822-15.9-15-27.54-30.254-34.593-12.582-5.818-26.088-7.2-35.2-7.334a14.624 14.624 0 0 1 -11.449-5.653c-7.478-9.919-26.344-26.561-68.732-26.561-79.017 0-100.658 50.144-106.294 71.7-1.346 5.146-5.678 9.027-10.158 12.455-15.9 12.162-24.963 27.854-26.937 46.638-1.652 15.733 1.771 30.83 4.522 42.961.929 4.095 1.806 7.964 2.319 11.194.662 4.162-1.094 8.161-3.524 13.7-5.565 12.673-13.185 30.03-2.262 67.194l.774 2.616c4.6 15.514 8.57 28.912 1.052 40.495-.909 1.4-22.145 34.641-12.226 64.854 4.84 14.74 16.1 26.009 33.461 33.566a66.971 66.971 0 0 0 -.349 6.857l.029 61.664a16.132 16.132 0 0 0 16.11 16.106h260.015a16.131 16.131 0 0 0 16.109-16.106l.029-61.664a67.057 67.057 0 0 0 -.351-6.876l.728-.3c15.608-5.958 25.991-15.134 30.863-27.274 8.5-21.186-2.548-44.436-6.708-53.189-.37-.774-.817-1.718-.978-2.108zm-264.871 103.122a5.855 5.855 0 0 1 -.256.6 65.571 65.571 0 0 0 -1.735 51.795h-32.845a4.117 4.117 0 0 1 -4.11-4.112l-.029-61.663a55.3 55.3 0 0 1 24.32-45.806c6.793 8.173 21.783 30.249 14.655 59.186zm49.373 52.395h-38.267a53.68 53.68 0 0 1 -.485-46.72 14.834 14.834 0 0 0 1.007-2.719c7.98-32.383-7.234-57.339-15.793-68.232l21.758-12.129 31.78 31.962zm21.961-171.066v-18.122a100.8 100.8 0 0 0 47.751-1.082l-.077 19.2a19.243 19.243 0 0 0 9.865 16.8l12.333 6.878a144.392 144.392 0 0 1 -45.812 7.156c-.153 0 .153 0 0 0-20.455 0-36.313-3.76-46.261-7.156l12.336-6.879a19.245 19.245 0 0 0 9.865-16.795zm-67.055-116.52v-28.033c19.6-30.951 46.3-41.25 72.145-51.2 14.862-5.722 29.21-11.247 40.588-20.53 30.469 6.309 51.383 28.062 64.691 48.264v51.5a88.712 88.712 0 1 1 -177.424 0zm91.132 159.351c29.783-.082 50.68-7.691 59.335-11.6l7.113 3.966-66.689 67.069-66.691-67.073 7.113-3.966c8.714 3.942 29.77 11.605 59.822 11.605.159 0-.16-.001 0-.001zm-34.041 84.458 23.319 18.347-23.319 18.861zm10.962 43.777 22.033-17.82 22.648 17.82zm56.011-6.355-24.408-19.2 24.408-19.745zm0-54.379-34.081 27.564-32.889-25.877v-26.725l27.606 27.765a8.26 8.26 0 0 0 12.382 0l26.981-27.136zm50.892 60.734h-38.892v-97.212l32.405-32.588 21.758 12.133c-8.559 10.892-23.772 35.849-15.793 68.235a14.963 14.963 0 0 0 1.008 2.715 53.69 53.69 0 0 1 -.486 46.717zm50.052-4.112a4.116 4.116 0 0 1 -4.108 4.112h-32.847a65.575 65.575 0 0 0 -1.734-51.79c-.188-.4-.242-.552-.238-.535-7.139-29 7.845-51.082 14.636-59.256a55.3 55.3 0 0 1 24.32 45.806zm32.133-100.578c-3.458 8.613-11.136 15.35-22.808 20.051a67.289 67.289 0 0 0 -31.792-39.9l-72.1-40.206a7.228 7.228 0 0 1 -3.708-6.293l.093-23.289a100.908 100.908 0 0 0 62.6-93.255v-30.041a144.571 144.571 0 0 1 7.034 17.478 6 6 0 0 0 11.5-3.429 176.8 176.8 0 0 0 -21.124-43.213c-17.373-25.99-39.466-43.268-64.377-50.5a59.1 59.1 0 0 0 7.09-11.839 6 6 0 0 0 -10.934-4.944c-9.036 19.98-28.38 27.427-50.78 36.05-26.786 10.313-57.148 22-78.947 57.519-17.021 27.731-17.983 59.287-18.016 60.616a6 6 0 0 0 5.845 6.142q.078 0 .156 0a6 6 0 0 0 6-5.844 127.847 127.847 0 0 1 5.134-29.091v1.086a100.918 100.918 0 0 0 67.052 94.957v21.563a7.236 7.236 0 0 1 -3.709 6.317l-72.1 40.206a67.29 67.29 0 0 0 -31.766 39.817c-12.72-6.081-20.935-14.537-24.44-25.21-8.146-24.816 10.7-54.283 10.89-54.578 10.53-16.222 5.374-33.617.388-50.438l-.766-2.591c-9.689-32.963-3.354-47.392 1.736-58.985 2.882-6.563 5.6-12.763 4.388-20.406-.575-3.616-1.494-7.67-2.468-11.963-5.189-22.889-12.3-54.235 18-77.414 5.886-4.5 12.208-10.274 14.476-18.951a81 81 0 0 1 22.834-38.823c17.031-15.863 41.205-23.909 71.846-23.909 15.959 0 44.865 2.83 59.142 21.782a26.356 26.356 0 0 0 20.859 10.431c16.514.244 45.508 4.908 54.15 33.41a26.348 26.348 0 0 0 12.466 15.461 59.174 59.174 0 0 1 25.069 26.437c8.217 17.535 7.641 39.606-1.727 65.643-.336.955-8.025 23.728 8.235 52.922 12.844 23.061 10.283 33.751 7.039 47.285-2.6 10.833-5.537 23.11-.577 42.309a24.265 24.265 0 0 0 1.707 4.061c3.544 7.459 12.956 27.259 6.41 43.569z"/><path d="m368.885 107.6c-.332.008-.679.031-1.037.07a2.462 2.462 0 0 1 -1.993-.815c.007-.028.016-.06.028-.094a14.478 14.478 0 0 0 1.492-2.184 6 6 0 0 0 -9.552-7.093 14.314 14.314 0 0 0 -1.656 2.075 1.737 1.737 0 0 1 -1.22.355c-.717-.107-1.28-1.038-1.29-1.052l-.021-.039a6 6 0 0 0 -10.606 5.614 2.534 2.534 0 0 1 .065 2.045 2.153 2.153 0 0 1 -1.849 1.12 6 6 0 0 0 -.237 11.98 2.746 2.746 0 0 1 1.979 1.177 2.275 2.275 0 0 1 .174 1.485 13.615 13.615 0 0 0 -.588 1.662 6 6 0 0 0 11.132 4.334 13.234 13.234 0 0 0 .64-1.535 1.209 1.209 0 0 1 1.011-.563 1.068 1.068 0 0 1 .644.354 14.13 14.13 0 0 0 .865 1.915 6 6 0 0 0 11.056-4.454 13.5 13.5 0 0 0 -.775-2.118 2.044 2.044 0 0 1 .289-1.275 2.341 2.341 0 0 1 1.536-.934c.26-.019.522-.044.784-.076a6 6 0 0 0 -.871-11.954zm-15.765 6.72c-.133-.213-.269-.42-.41-.621a13.965 13.965 0 0 0 1.018-1.654l.094-.182c.384.038.769.059 1.152.063a12.32 12.32 0 0 0 1.375 2.257 12.812 12.812 0 0 0 -3.229.134z"/></g></svg>