<svg id="Layer_1" height="512" viewBox="0 0 512 512" width="512" xmlns="http://www.w3.org/2000/svg" data-name="Layer 1"><path d="m365.95 310.72h-219.9a81.994 81.994 0 0 0 -82 81.99v103.29h383.9v-103.29a81.994 81.994 0 0 0 -82-81.99z" fill="#5cc69b"/><path d="m336.39 310.72c-9.92-4.55-22.26-8.25-36.24-10.78h-88.3c-13.98 2.53-26.32 6.23-36.24 10.78-16.08 7.37-25.81 16.97-25.81 27.48 0 21.02 38.97 38.44 89.87 41.56 4.71.28 9.53.45 14.43.48.63.01 1.26.01 1.9.01 8.49 0 16.75-.39 24.66-1.14 46.76-4.4 81.54-21.05 81.54-40.91 0-10.51-9.73-20.11-25.81-27.48z" fill="#80aaff"/><path d="m280.66 379.11c2.25 3.07 23.27 33.53 7.58 79.26a1.663 1.663 0 0 1 -2.54.81c-20.2-14.57-29.49-29.72-33.28-42.81-5.57-19.27.74-34.1 1.68-36.13.63.01 1.26.01 1.9.01 8.49 0 16.75-.39 24.66-1.14z" fill="#6994fe"/><path d="m252.42 416.37-.32.09c-7.69 12.19-27.01 22.5-32.31 26.14a1.669 1.669 0 0 1 -2.55-.98c-10.14-39.53 22.41-61.62 22.41-61.62l.02-.24c4.71.28 9.53.45 14.43.48-.94 2.03-7.25 16.86-1.68 36.13z" fill="#507acc"/><path d="m299.99 274.06-88.14 3.3v36.1a44.15 44.15 0 1 0 88.3 0v-39.18z" fill="#efc597"/><path d="m288.45 27.02c-24.38-8.48-52.33-2.08-69.92-1.44-6.51.24-9.81-6.38-10.77-9.58a20.052 20.052 0 0 0 -.97 12.33s-8.77-1.85-14 1.54a14.933 14.933 0 0 1 4.64 4.73s-77.98 50.65-45.18 136.81c5.99-49.09 43.53-58.34 43.53-58.34 10.32 16.31 28.14 16.97 28.14 16.97-7.18-13.77 0-24.54 0-24.54 14.96 44.9 67.03 35.32 67.03 35.32-12.57-6.59-15.56-24.55-15.56-24.55 68.22 4.79 77.09 68.22 77.09 68.22 0-.57.01-.31.01-.03.75-2.18 41.02-120.9-64.04-157.44z" fill="#aa434f"/><path d="m275.39 116.27s2.99 17.96 15.56 24.55c0 0-52.07 9.58-67.03-35.32 0 0-7.18 10.77 0 24.54 0 0-17.82-.66-28.14-16.97 0 0-37.54 9.25-43.53 58.34a102.968 102.968 0 0 0 -1.09 15.41c0 29.78 8.55 63.07 33.43 74.99a207.093 207.093 0 0 1 27.26 15.55c17.44 11.81 23.51 19.59 42.06 19.59 18.63 0 30.69-11.79 46.08-22.89a117.9 117.9 0 0 1 17.17-10.58c25.53-12.54 35.32-48.3 35.32-78.99 0 0-8.87-63.43-77.09-68.22z" fill="#ffd8b7"/><path d="m176.05 311h-30a81.8 81.8 0 0 0 -82.05 81.71v103.29h30v-103.29a81.8 81.8 0 0 1 82.05-81.71z" fill="#419370"/><path d="m184.59 261.81a207.093 207.093 0 0 1 27.26 15.55c17.44 11.81 23.51 19.59 42.06 19.59a41.973 41.973 0 0 0 14.469-2.554c-8.461-3.205-15.02-9.242-26.529-17.036a207.093 207.093 0 0 0 -27.26-15.55c-24.88-11.92-33.43-45.21-33.43-74.99a102.968 102.968 0 0 1 1.09-15.41c3-24.55 13.882-39.136 24.018-47.584a35.786 35.786 0 0 1 -10.488-10.756s-37.54 9.25-43.53 58.34a102.968 102.968 0 0 0 -1.09 15.41c0 29.78 8.55 63.07 33.43 74.99z" fill="#d6b196"/><path d="m64.055 502h383.89a6 6 0 0 0 6-6v-103.285a88.092 88.092 0 0 0 -87.992-87.993h-28.353a154.1 154.1 0 0 0 -31.453-9.722v-17.951a104.8 104.8 0 0 1 13.653-8.186c28.219-13.856 38.459-51.956 38.671-83.378 1.82-5.593 10.313-33.83 7.735-66.373-2.653-33.493-17.955-77.64-75.781-97.755-19.673-6.842-40.887-4.684-57.931-2.949-5.179.527-10.07 1.025-14.178 1.174-3.136.1-4.793-5.259-4.81-5.313a6 6 0 0 0 -11.181-.808 25.437 25.437 0 0 0 -2.034 8.387 21.334 21.334 0 0 0 -10.764 2.983 5.982 5.982 0 0 0 -1.213 9.018 145.214 145.214 0 0 0 -30.79 33.55c-14.658 22.312-28.412 58.506-11.409 104.682a110.369 110.369 0 0 0 -.959 14.737c0 11.982 1.352 29.751 7.795 46.362 6.359 16.4 16.133 27.849 29.05 34.039a202.059 202.059 0 0 1 23.852 13.359v14.422a154.107 154.107 0 0 0 -31.457 9.721h-28.349a88.092 88.092 0 0 0 -87.992 87.993v103.286a6 6 0 0 0 6 6zm87.8-353.959c-4.745-25.913.426-50.622 15.469-73.7a134.122 134.122 0 0 1 28.114-30.8 6 6 0 0 0 9.538-5.948 18.8 18.8 0 0 0 -1.138-3.646c.632.064 1.215.151 1.714.252a6 6 0 0 0 6.86-3.779 14.594 14.594 0 0 0 6.342 1.153c4.5-.163 9.579-.68 14.957-1.228 15.866-1.615 35.613-3.624 52.775 2.345 41.4 14.4 64.187 43.679 67.733 87.021a165.729 165.729 0 0 1 -2.426 42.53 95.287 95.287 0 0 0 -7.25-13.346c-10.547-16.153-31.034-35.962-68.733-38.609a6 6 0 0 0 -6.339 6.971 51.713 51.713 0 0 0 7.444 18.449c-14.92-.418-38.446-5.535-47.3-32.107a6 6 0 0 0 -10.685-1.431 30.109 30.109 0 0 0 -3.93 19.538 30.487 30.487 0 0 1 -11.549-8.31c-7.374-8.637-10.158-21.75-8.276-38.975a6 6 0 0 0 -11.929-1.3c-1.583 14.49-.21 26.768 4.064 36.7-9.519 4.262-26.292 14.779-35.458 38.22zm35.332 108.359c-27.866-13.354-30.031-56.633-30.031-69.58a96.594 96.594 0 0 1 1.029-14.5h-.013c.009-.06.03-.117.037-.178 4.361-35.769 26.407-48.306 35.31-51.955.321.4.632.809.968 1.2a43.692 43.692 0 0 0 29.213 14.651 6 6 0 0 0 5.541-8.77c7.987 9.343 18.965 15.657 32.536 18.59a84.882 84.882 0 0 0 30.256.86 6 6 0 0 0 1.7-11.216c-4.961-2.6-8.088-7.777-9.965-12.242 21.857 3.5 38.81 14.175 50.476 31.814a83.889 83.889 0 0 1 12.233 29.867c-.094 26.658-8.5 61.629-31.964 73.151-9.874 4.848-18.072 11.038-25.305 16.5-11.622 8.775-21.659 16.354-35.292 16.354-12.89 0-18.352-3.963-29.233-11.857a221.553 221.553 0 0 0 -37.496-22.689zm106.96 29.5v27.565a38.147 38.147 0 1 1 -76.294 0v-24.5c11.2 8.128 19.387 13.986 36.061 13.986 16.598-.006 28.268-8.068 40.233-17.057zm-88.294 21.378v6.187a50.147 50.147 0 1 0 100.294 0v-6.187c29.805 6.581 50.053 18.9 50.053 30.926 0 17.051-41.151 36.049-100.2 36.049s-100.2-19-100.2-36.049c0-12.029 20.247-24.351 50.053-30.932zm78.521 143.371c-33.954-27.134-29.241-54.765-26.157-64.417 6.576-.053 13.065-.325 19.4-.83 4.753 7.885 16.206 31.641 6.757 65.241zm-39.98-44.636a62.971 62.971 0 0 0 1.462 8.942c-5.781 7.745-17.064 14.945-24.006 19.245-4.068-27.563 14.828-44.336 19.958-48.331 1.349.069 2.7.135 4.058.185a61.493 61.493 0 0 0 -1.472 19.953zm-174.339-13.298a76.078 76.078 0 0 1 75.992-75.993h8.953c-7.253 6.463-11.195 13.751-11.195 21.476 0 13.862 12.393 26.4 34.9 35.312 13.384 5.3 29.569 9.051 47.18 11.055a70.381 70.381 0 0 0 -6.249 8.128c-6.933 10.556-13.984 27.872-8.2 50.415a7.665 7.665 0 0 0 11.761 4.435c.838-.575 2.232-1.437 3.846-2.435 5.994-3.707 15.815-9.786 23.362-17.238 7.524 15.993 20.55 28.066 31.8 36.176a7.666 7.666 0 0 0 11.727-3.726c12.358-36.037 3.315-63.126-3.354-76.3 15.887-2.106 30.487-5.657 42.737-10.507 22.5-8.91 34.9-21.45 34.9-35.312 0-7.725-3.942-15.013-11.195-21.476h8.948a76.078 76.078 0 0 1 75.992 75.993v97.282h-63.633v-77.067a6 6 0 0 0 -12 0v77.067h-220.654v-77.067a6 6 0 0 0 -12 0v77.067h-63.618z" fill="#284268"/></svg>